<?xml version="1.0"?>
<svg xmlns="http://www.w3.org/2000/svg" xmlns:xlink="http://www.w3.org/1999/xlink" version="1.1" id="Capa_1" x="0px" y="0px" viewBox="0 0 512 512" style="enable-background:new 0 0 512 512;" xml:space="preserve" width="512px" height="512px"><g><g>
	<g>
		<path d="M417.319,147.248l45.819-45.819c23.172-23.173,23.172-60.876,0-84.049c-16.217-16.216-40.64-21.664-62.219-13.881    c-17.458,6.296-36.935,9.489-57.889,9.489h-49.633v30.001h49.633c24.434,0,47.335-3.791,68.067-11.268    c10.695-3.857,22.794-1.158,30.827,6.874c11.475,11.475,11.475,30.147,0,41.622l-45.819,45.819l-56.571-56.571L279.701,129.3    c-17.125-4.837-112.741-28.685-191.195,49.769c-76.032,76.032-76.032,199.747,0,275.779c72.954,72.954,196.396,79.383,275.779,0    c51.658-51.658,68.204-125.323,49.668-191.093l59.937-59.937L417.319,147.248z M410.248,225.032l-91.926-91.926l21.213-21.214    l91.927,91.926L410.248,225.032z" data-original="#000000" class="active-path" data-old_color="#000000" fill="#AFAFAF"/>
	</g>
</g></g> </svg>
